<?xml version="1.0" standalone="no"?>
<svg xmlns:xlink="http://www.w3.org/1999/xlink" id="wave" style="transform:rotate(0deg); transition: 0.3s" viewBox="0 0 1440 490" version="1.1" xmlns="http://www.w3.org/2000/svg"><defs><linearGradient id="sw-gradient-0" x1="0" x2="0" y1="1" y2="0"><stop stop-color="rgba(180.284, 60.43, 21.937, 1)" offset="0%"/><stop stop-color="rgba(255, 179, 11, 1)" offset="100%"/></linearGradient></defs><path style="transform:translate(0, 0px); opacity:1" fill="url(#sw-gradient-0)" d="M0,147L80,187.8C160,229,320,310,480,310.3C640,310,800,229,960,163.3C1120,98,1280,49,1440,89.8C1600,131,1760,261,1920,285.8C2080,310,2240,229,2400,228.7C2560,229,2720,310,2880,359.3C3040,408,3200,425,3360,367.5C3520,310,3680,180,3840,155.2C4000,131,4160,212,4320,204.2C4480,196,4640,98,4800,49C4960,0,5120,0,5280,8.2C5440,16,5600,33,5760,40.8C5920,49,6080,49,6240,106.2C6400,163,6560,278,6720,334.8C6880,392,7040,392,7200,326.7C7360,261,7520,131,7680,138.8C7840,147,8000,294,8160,310.3C8320,327,8480,212,8640,204.2C8800,196,8960,294,9120,277.7C9280,261,9440,131,9600,98C9760,65,9920,131,10080,138.8C10240,147,10400,98,10560,98C10720,98,10880,147,11040,196C11200,245,11360,294,11440,318.5L11520,343L11520,490L11440,490C11360,490,11200,490,11040,490C10880,490,10720,490,10560,490C10400,490,10240,490,10080,490C9920,490,9760,490,9600,490C9440,490,9280,490,9120,490C8960,490,8800,490,8640,490C8480,490,8320,490,8160,490C8000,490,7840,490,7680,490C7520,490,7360,490,7200,490C7040,490,6880,490,6720,490C6560,490,6400,490,6240,490C6080,490,5920,490,5760,490C5600,490,5440,490,5280,490C5120,490,4960,490,4800,490C4640,490,4480,490,4320,490C4160,490,4000,490,3840,490C3680,490,3520,490,3360,490C3200,490,3040,490,2880,490C2720,490,2560,490,2400,490C2240,490,2080,490,1920,490C1760,490,1600,490,1440,490C1280,490,1120,490,960,490C800,490,640,490,480,490C320,490,160,490,80,490L0,490Z"/></svg>