<?xml version="1.0" standalone="no"?>
<svg 
    xmlns:xlink="http://www.w3.org/1999/xlink" 
    id="wave" 
    style="transform:rotate(0deg); transition: 0.3s" 
    viewBox="0 0 1440 490" 
    version="1.1" 
    xmlns="http://www.w3.org/2000/svg">
    <defs>
        <linearGradient 
            id="sw-gradient-0" 
            x1="0" 
            x2="0" 
            y1="1" 
            y2="0">
            <stop 
                stop-color="rgba(180.284, 60.43, 21.937, 1)" 
                offset="0%"/>
                <stop 
                    stop-color="rgba(255, 179, 11, 1)" 
                    offset="100%"/>
        </linearGradient>
    </defs>
    <path 
        style="transform:translate(0, 0px); opacity:1"
        fill="url(#sw-gradient-0)" 
        d="M0,147L120,187.8C240,229,480,310,720,310.3C960,310,1200,229,1440,163.3C1680,98,1920,49,2160,89.8C2400,131,2640,261,2880,285.8C3120,310,3360,229,3600,228.7C3840,229,4080,310,4320,359.3C4560,408,4800,425,5040,367.5C5280,310,5520,180,5760,155.2C6000,131,6240,212,6480,204.2C6720,196,6960,98,7200,49C7440,0,7680,0,7920,8.2C8160,16,8400,33,8640,40.8C8880,49,9120,49,9360,106.2C9600,163,9840,278,10080,334.8C10320,392,10560,392,10800,326.7C11040,261,11280,131,11520,138.8C11760,147,12000,294,12240,310.3C12480,327,12720,212,12960,204.2C13200,196,13440,294,13680,277.7C13920,261,14160,131,14400,98C14640,65,14880,131,15120,138.8C15360,147,15600,98,15840,98C16080,98,16320,147,16560,196C16800,245,17040,294,17160,318.5L17280,343L17280,490L17160,490C17040,490,16800,490,16560,490C16320,490,16080,490,15840,490C15600,490,15360,490,15120,490C14880,490,14640,490,14400,490C14160,490,13920,490,13680,490C13440,490,13200,490,12960,490C12720,490,12480,490,12240,490C12000,490,11760,490,11520,490C11280,490,11040,490,10800,490C10560,490,10320,490,10080,490C9840,490,9600,490,9360,490C9120,490,8880,490,8640,490C8400,490,8160,490,7920,490C7680,490,7440,490,7200,490C6960,490,6720,490,6480,490C6240,490,6000,490,5760,490C5520,490,5280,490,5040,490C4800,490,4560,490,4320,490C4080,490,3840,490,3600,490C3360,490,3120,490,2880,490C2640,490,2400,490,2160,490C1920,490,1680,490,1440,490C1200,490,960,490,720,490C480,490,240,490,120,490L0,490Z"/>
    </svg>