<?xml version="1.0" standalone="no"?>
<svg xmlns:xlink="http://www.w3.org/1999/xlink" id="wave" style="transform:rotate(0deg); transition: 0.3s" viewBox="0 0 1440 490" version="1.1" xmlns="http://www.w3.org/2000/svg"><defs><linearGradient id="sw-gradient-0" x1="0" x2="0" y1="1" y2="0"><stop stop-color="rgba(216.712, 54.117, 1.897, 1)" offset="0%"/><stop stop-color="rgba(196.221, 158.07, 73.735, 1)" offset="100%"/></linearGradient></defs><path style="transform:translate(0, 0px); opacity:1" fill="url(#sw-gradient-0)" d="M0,343L80,294C160,245,320,147,480,122.5C640,98,800,147,960,196C1120,245,1280,294,1440,285.8C1600,278,1760,212,1920,196C2080,180,2240,212,2400,187.8C2560,163,2720,82,2880,89.8C3040,98,3200,196,3360,245C3520,294,3680,294,3840,302.2C4000,310,4160,327,4320,277.7C4480,229,4640,114,4800,98C4960,82,5120,163,5280,204.2C5440,245,5600,245,5760,277.7C5920,310,6080,376,6240,351.2C6400,327,6560,212,6720,212.3C6880,212,7040,327,7200,310.3C7360,294,7520,147,7680,98C7840,49,8000,98,8160,163.3C8320,229,8480,310,8640,343C8800,376,8960,359,9120,326.7C9280,294,9440,245,9600,228.7C9760,212,9920,229,10080,220.5C10240,212,10400,180,10560,138.8C10720,98,10880,49,11040,49C11200,49,11360,98,11440,122.5L11520,147L11520,490L11440,490C11360,490,11200,490,11040,490C10880,490,10720,490,10560,490C10400,490,10240,490,10080,490C9920,490,9760,490,9600,490C9440,490,9280,490,9120,490C8960,490,8800,490,8640,490C8480,490,8320,490,8160,490C8000,490,7840,490,7680,490C7520,490,7360,490,7200,490C7040,490,6880,490,6720,490C6560,490,6400,490,6240,490C6080,490,5920,490,5760,490C5600,490,5440,490,5280,490C5120,490,4960,490,4800,490C4640,490,4480,490,4320,490C4160,490,4000,490,3840,490C3680,490,3520,490,3360,490C3200,490,3040,490,2880,490C2720,490,2560,490,2400,490C2240,490,2080,490,1920,490C1760,490,1600,490,1440,490C1280,490,1120,490,960,490C800,490,640,490,480,490C320,490,160,490,80,490L0,490Z"/></svg>