<?xml version="1.0" standalone="no"?>
<svg xmlns:xlink="http://www.w3.org/1999/xlink" id="wave" style="transform:rotate(0deg); transition: 0.3s" viewBox="0 0 1440 490" version="1.1" xmlns="http://www.w3.org/2000/svg"><defs><linearGradient id="sw-gradient-0" x1="0" x2="0" y1="1" y2="0"><stop stop-color="rgba(180.284, 60.43, 21.937, 1)" offset="0%"/><stop stop-color="rgba(255, 179, 11, 1)" offset="100%"/></linearGradient></defs><path style="transform:translate(0, 0px); opacity:1" fill="url(#sw-gradient-0)" d="M0,147L40,187.8C80,229,160,310,240,310.3C320,310,400,229,480,163.3C560,98,640,49,720,89.8C800,131,880,261,960,285.8C1040,310,1120,229,1200,228.7C1280,229,1360,310,1440,359.3C1520,408,1600,425,1680,367.5C1760,310,1840,180,1920,155.2C2000,131,2080,212,2160,204.2C2240,196,2320,98,2400,49C2480,0,2560,0,2640,8.2C2720,16,2800,33,2880,40.8C2960,49,3040,49,3120,106.2C3200,163,3280,278,3360,334.8C3440,392,3520,392,3600,326.7C3680,261,3760,131,3840,138.8C3920,147,4000,294,4080,310.3C4160,327,4240,212,4320,204.2C4400,196,4480,294,4560,277.7C4640,261,4720,131,4800,98C4880,65,4960,131,5040,138.8C5120,147,5200,98,5280,98C5360,98,5440,147,5520,196C5600,245,5680,294,5720,318.5L5760,343L5760,490L5720,490C5680,490,5600,490,5520,490C5440,490,5360,490,5280,490C5200,490,5120,490,5040,490C4960,490,4880,490,4800,490C4720,490,4640,490,4560,490C4480,490,4400,490,4320,490C4240,490,4160,490,4080,490C4000,490,3920,490,3840,490C3760,490,3680,490,3600,490C3520,490,3440,490,3360,490C3280,490,3200,490,3120,490C3040,490,2960,490,2880,490C2800,490,2720,490,2640,490C2560,490,2480,490,2400,490C2320,490,2240,490,2160,490C2080,490,2000,490,1920,490C1840,490,1760,490,1680,490C1600,490,1520,490,1440,490C1360,490,1280,490,1200,490C1120,490,1040,490,960,490C880,490,800,490,720,490C640,490,560,490,480,490C400,490,320,490,240,490C160,490,80,490,40,490L0,490Z"/></svg>